<svg xmlns="http://www.w3.org/2000/svg" viewBox="0 0 65.64 57.5" color="#2b2b2b"><g data-name="3"><path data-name="Path 3957" d="M38.78 37.73A3.781 3.781 0 0135 41.5h-4.85a3.773 3.773 0 01-3.77-3.77v-1.815c-10.55-.6-19.76-2.6-26.38-5.52v20.98a6.135 6.135 0 006.13 6.12h53.38a6.135 6.135 0 006.13-6.12v-20.71c-6.8 2.87-16.18 4.8-26.86 5.3z"/><path data-name="Path 3958" d="M35 38.5a.779.779 0 00.78-.77V31.8a.773.773 0 00-.78-.77h-4.85a.77.77 0 00-.77.77v5.93a.777.777 0 00.77.77z"/><path data-name="Path 3959" d="M59.51 9.32H44.76v-4a5.824 5.824 0 00-.62-2.66A4.464 4.464 0 0040.2 0H25.443a4.514 4.514 0 00-3.99 2.73 5.936 5.936 0 00-.58 2.59v4H6.133a6.137 6.137 0 00-6.13 6.13V27.2c5.99 2.87 15.12 5.08 26.38 5.73V31.8a3.773 3.773 0 013.77-3.77h4.85a3.781 3.781 0 013.78 3.77v1.18c11.39-.54 20.67-2.67 26.86-5.49V15.45a6.137 6.137 0 00-6.133-6.13zm-18.75 0H24.87v-3c0-1.26.72-2.32 1.57-2.32H39.2c.85 0 1.56 1.06 1.56 2.32z"/></g></svg>