<svg xmlns="http://www.w3.org/2000/svg" viewBox="0 0 66.71 40.935" color="#2b2b2b"><g data-name="15"><path data-name="Path 784" d="M37.2 28.378a13.064 13.064 0 01-7.7 0l-13.745-4.672a.91.91 0 00-1.155.567.956.956 0 00-.044.206l-.773 11.41h.009c0 .009-.009.018-.009.027 0 2.777 8.764 5.019 19.557 5.019s19.575-2.242 19.575-5.019l-.775-11.437a.908.908 0 00-1.2-.773z"/><path data-name="Path 785" d="M65.501 10.595L35.785.38a8.065 8.065 0 00-4.866 0L1.206 10.595a1.688 1.688 0 000 3.233l1.9.649a3.486 3.486 0 001.875.106L31.201 8.8a1.82 1.82 0 012.165 1.35 1.919 1.919 0 01.047.392 1.8 1.8 0 01-1.424 1.741l-20.315 4.484a.336.336 0 00-.259.4.333.333 0 00.222.248l19.288 6.623a8.083 8.083 0 004.867 0L65.508 13.83a1.685 1.685 0 000-3.233z"/><path data-name="Path 786" d="M9.219 22.508v-4.974a.826.826 0 00-.62-.8l-2.814-.723a.824.824 0 00-1.031.8v5.7l-2.033 2.314a1.575 1.575 0 000 2.077l3.085 3.51a1.574 1.574 0 002.221.141 1.552 1.552 0 00.141-.141l3.085-3.51a1.575 1.575 0 000-2.077z"/></g></svg>