<svg xmlns="http://www.w3.org/2000/svg" viewBox="0 0 58.839 62.081" color="#2b2b2b"><path data-name="4" d="M58.468 37.151l-2.55-4.79c-.24-.45-.48-.88-.71-1.3a19.918 19.918 0 01-2.04-4.5 10.377 10.377 0 01-.36-2.24 24.944 24.944 0 00-2.28-8.8A26.474 26.474 0 0023.368.171C-.477 2.858-8.589 33.815 10.958 47.911v13.11a1 1 0 001 1c29.9 0 29.15.428 29.15-1v-3.45a1.43 1.43 0 011.43-1.43h6.3a4.044 4.044 0 004.05-4.04v-9.34l3.67-1.07a3.185 3.185 0 001.91-4.54zm-21.79-3.79a1 1 0 01-.98.21.989.989 0 01-.66-.75 3.153 3.153 0 00-.87-1.57 3.293 3.293 0 00-5.6 2.32 3.232 3.232 0 002.5 3.18 1.006 1.006 0 01.51 1.66c-7.676 8.215-2.815 7.553-13.01-2.91-9.291-9.408-10.734-5.593-3.93-11.11a5.379 5.379 0 117.03-6.81c5.775-6.842 3.3-7.448 9.27-.29 1.965-5.164 9.532-4.025 10.05 1.37a5.206 5.206 0 01-3.42 5.4c6.228 5.222 6.596 2.522-.889 9.3z"/></svg>